<svg
    viewBox="0 0 24 24"
    fill="none"
    xmlns="http://www.w3.org/2000/svg"
>
    <rect x="2" y="2.5" width="20" height="14" rx="3" fill="green" />
    <rect x="4" y="3.5" width="16" height="12" rx="1" fill="white" />
    <path
        d="M8.45801 10.0664C8.45801 10.0085 8.45345 9.96289 8.44434 9.92969C8.43522 9.89648 8.41471 9.87207 8.38281 9.85645C8.35091 9.84017 8.30143 9.82975 8.23438 9.8252C8.16732 9.81999 8.07552 9.81641 7.95898 9.81445L7.41602 9.80664C7.2819 9.80469 7.17415 9.79655 7.09277 9.78223C7.01139 9.7679 6.94987 9.74544 6.9082 9.71484C6.86654 9.68359 6.83854 9.64193 6.82422 9.58984C6.81055 9.53776 6.80371 9.47266 6.80371 9.39453C6.80371 9.30924 6.81315 9.23893 6.83203 9.18359C6.85156 9.12826 6.88639 9.08496 6.93652 9.05371C6.9873 9.02246 7.05892 9.00065 7.15137 8.98828C7.24382 8.97526 7.36328 8.96875 7.50977 8.96875H7.92773C8.06055 8.96875 8.17122 8.97298 8.25977 8.98145C8.34831 8.98991 8.41862 9.00944 8.4707 9.04004C8.52279 9.07064 8.5599 9.11816 8.58203 9.18262C8.60482 9.24707 8.61621 9.33561 8.61621 9.44824H8.42871C8.42871 9.361 8.42025 9.29525 8.40332 9.25098C8.38704 9.20605 8.3597 9.17546 8.32129 9.15918C8.28353 9.1429 8.23242 9.13411 8.16797 9.13281C8.10352 9.13151 8.02344 9.13086 7.92773 9.13086H7.51953C7.40299 9.13086 7.30957 9.13314 7.23926 9.1377C7.1696 9.14225 7.11686 9.15267 7.08105 9.16895C7.04525 9.18522 7.02116 9.21126 7.00879 9.24707C6.99707 9.28288 6.99121 9.33203 6.99121 9.39453C6.99121 9.44727 6.99544 9.48958 7.00391 9.52148C7.01237 9.55339 7.03125 9.5778 7.06055 9.59473C7.09049 9.611 7.13639 9.6224 7.19824 9.62891C7.26009 9.63477 7.3444 9.63835 7.45117 9.63965L8.0332 9.64746C8.16992 9.64941 8.27897 9.65755 8.36035 9.67188C8.44238 9.68555 8.50358 9.70801 8.54395 9.73926C8.58496 9.77051 8.61198 9.81283 8.625 9.86621C8.63867 9.91895 8.64551 9.98568 8.64551 10.0664C8.64551 10.1543 8.63704 10.2282 8.62012 10.2881C8.60384 10.3473 8.57194 10.3949 8.52441 10.4307C8.47689 10.4665 8.4082 10.4922 8.31836 10.5078C8.22852 10.5234 8.11035 10.5312 7.96387 10.5312H7.50684C7.37337 10.5312 7.26139 10.5254 7.1709 10.5137C7.0804 10.502 7.00814 10.4785 6.9541 10.4434C6.90072 10.4076 6.8623 10.3545 6.83887 10.2842C6.81543 10.2139 6.80371 10.1201 6.80371 10.0029H6.99121C6.99121 10.0947 6.9987 10.1657 7.01367 10.2158C7.02865 10.266 7.05469 10.3021 7.0918 10.3242C7.12956 10.3457 7.18197 10.3587 7.24902 10.3633C7.31673 10.3672 7.40267 10.3691 7.50684 10.3691H7.9541C8.07064 10.3691 8.16276 10.3656 8.23047 10.3584C8.29818 10.3506 8.34831 10.3363 8.38086 10.3154C8.41341 10.2939 8.43424 10.2633 8.44336 10.2236C8.45312 10.1839 8.45801 10.1315 8.45801 10.0664ZM9.41113 10.5C9.29655 10.5 9.20475 10.4886 9.13574 10.4658C9.06673 10.4424 9.0166 10.4014 8.98535 10.3428C8.95475 10.2835 8.93945 10.2005 8.93945 10.0938V9.06738H9.12695V9.375H9.81934V9.5293H9.12695V10.0938C9.12695 10.1667 9.13346 10.221 9.14648 10.2568C9.16016 10.2926 9.18717 10.3161 9.22754 10.3271C9.26855 10.3382 9.32975 10.3438 9.41113 10.3438C9.4834 10.3438 9.54004 10.3415 9.58105 10.3369C9.62272 10.3324 9.65332 10.3203 9.67285 10.3008C9.69238 10.2806 9.70475 10.2477 9.70996 10.2021C9.71517 10.1566 9.71777 10.0924 9.71777 10.0098H9.88379C9.88379 10.1178 9.87695 10.2044 9.86328 10.2695C9.85026 10.3346 9.8265 10.3838 9.79199 10.417C9.75814 10.4502 9.71029 10.4723 9.64844 10.4834C9.58724 10.4945 9.50814 10.5 9.41113 10.5ZM10.7363 10.5215C10.5892 10.5215 10.4733 10.5055 10.3887 10.4736C10.304 10.4411 10.2438 10.387 10.208 10.3115C10.1722 10.2354 10.1543 10.1315 10.1543 10V9.375H10.3428V10C10.3428 10.0742 10.3486 10.1354 10.3604 10.1836C10.3727 10.2311 10.3942 10.2682 10.4248 10.2949C10.4554 10.321 10.4984 10.3392 10.5537 10.3496C10.6097 10.36 10.6816 10.3652 10.7695 10.3652C10.8997 10.3652 11.002 10.3545 11.0762 10.333C11.1504 10.3115 11.2028 10.278 11.2334 10.2324C11.2646 10.1862 11.2803 10.1263 11.2803 10.0527V9.375H11.4678V10.5H11.2803V10.3506C11.2529 10.3883 11.2184 10.4199 11.1768 10.4453C11.1351 10.4707 11.0794 10.4896 11.0098 10.502C10.9401 10.515 10.849 10.5215 10.7363 10.5215ZM12.3799 10.5215C12.2542 10.5215 12.1475 10.515 12.0596 10.502C11.9717 10.4896 11.9007 10.4639 11.8467 10.4248C11.7926 10.3851 11.7533 10.3258 11.7285 10.2471C11.7038 10.1683 11.6914 10.0632 11.6914 9.93164C11.6914 9.80404 11.7038 9.70182 11.7285 9.625C11.7533 9.54818 11.7926 9.49023 11.8467 9.45117C11.9007 9.41211 11.9717 9.38607 12.0596 9.37305C12.1475 9.36003 12.2542 9.35352 12.3799 9.35352C12.5003 9.35352 12.6019 9.36263 12.6846 9.38086C12.7679 9.39909 12.8333 9.43978 12.8809 9.50293V9H13.0684V10.5H12.8809V10.3711C12.8333 10.4349 12.7679 10.4759 12.6846 10.4941C12.6019 10.5124 12.5003 10.5215 12.3799 10.5215ZM12.8809 9.93164C12.8809 9.83854 12.8743 9.764 12.8613 9.70801C12.8483 9.65202 12.8242 9.61003 12.7891 9.58203C12.7539 9.55339 12.7035 9.53418 12.6377 9.52441C12.5719 9.51465 12.486 9.50977 12.3799 9.50977C12.264 9.50977 12.1722 9.51465 12.1045 9.52441C12.0368 9.53418 11.987 9.55339 11.9551 9.58203C11.9232 9.61003 11.9023 9.65202 11.8926 9.70801C11.8835 9.764 11.8789 9.83854 11.8789 9.93164C11.8789 10.028 11.8835 10.1051 11.8926 10.1631C11.9023 10.221 11.9232 10.2646 11.9551 10.2939C11.987 10.3226 12.0368 10.3418 12.1045 10.3516C12.1722 10.3607 12.264 10.3652 12.3799 10.3652C12.486 10.3652 12.5719 10.3607 12.6377 10.3516C12.7035 10.3418 12.7539 10.3226 12.7891 10.2939C12.8242 10.2646 12.8483 10.221 12.8613 10.1631C12.8743 10.1051 12.8809 10.028 12.8809 9.93164ZM13.9795 10.5215C13.8538 10.5215 13.7471 10.515 13.6592 10.502C13.5713 10.4896 13.5003 10.4639 13.4463 10.4248C13.3923 10.3851 13.3529 10.3258 13.3281 10.2471C13.3034 10.1683 13.291 10.0632 13.291 9.93164C13.291 9.80404 13.3034 9.70182 13.3281 9.625C13.3529 9.54818 13.3923 9.49023 13.4463 9.45117C13.5003 9.41211 13.5713 9.38607 13.6592 9.37305C13.7471 9.36003 13.8538 9.35352 13.9795 9.35352C14.1058 9.35352 14.2126 9.36003 14.2998 9.37305C14.3877 9.38607 14.4587 9.41211 14.5127 9.45117C14.5667 9.49023 14.6061 9.54818 14.6309 9.625C14.6556 9.70182 14.668 9.80404 14.668 9.93164C14.668 10.0632 14.6556 10.1683 14.6309 10.2471C14.6061 10.3258 14.5667 10.3851 14.5127 10.4248C14.4587 10.4639 14.3877 10.4896 14.2998 10.502C14.2126 10.515 14.1058 10.5215 13.9795 10.5215ZM14.4805 9.93164C14.4805 9.83854 14.4756 9.764 14.4658 9.70801C14.4567 9.65202 14.4362 9.61003 14.4043 9.58203C14.3724 9.55339 14.3226 9.53418 14.2549 9.52441C14.1878 9.51465 14.096 9.50977 13.9795 9.50977C13.8636 9.50977 13.7718 9.51465 13.7041 9.52441C13.6364 9.53418 13.5866 9.55339 13.5547 9.58203C13.5228 9.61003 13.502 9.65202 13.4922 9.70801C13.4831 9.764 13.4785 9.83854 13.4785 9.93164C13.4785 10.028 13.4831 10.1051 13.4922 10.1631C13.502 10.221 13.5228 10.2646 13.5547 10.2939C13.5866 10.3226 13.6364 10.3418 13.7041 10.3516C13.7718 10.3607 13.8636 10.3652 13.9795 10.3652C14.096 10.3652 14.1878 10.3607 14.2549 10.3516C14.3226 10.3418 14.3724 10.3226 14.4043 10.2939C14.4362 10.2646 14.4567 10.221 14.4658 10.1631C14.4756 10.1051 14.4805 10.028 14.4805 9.93164ZM14.9492 10.5V9H15.1367V10.5H14.9492ZM15.4492 10.5V9.4375H15.6367V10.5H15.4492ZM15.4492 9.1875V9H15.6367V9.1875H15.4492ZM16.5439 10.5215C16.4183 10.5215 16.3115 10.515 16.2236 10.502C16.1357 10.4896 16.0648 10.4639 16.0107 10.4248C15.9567 10.3851 15.9173 10.3258 15.8926 10.2471C15.8678 10.1683 15.8555 10.0632 15.8555 9.93164C15.8555 9.80404 15.8678 9.70182 15.8926 9.625C15.9173 9.54818 15.9567 9.49023 16.0107 9.45117C16.0648 9.41211 16.1357 9.38607 16.2236 9.37305C16.3115 9.36003 16.4183 9.35352 16.5439 9.35352C16.6702 9.35352 16.777 9.36003 16.8643 9.37305C16.9521 9.38607 17.0231 9.41211 17.0771 9.45117C17.1312 9.49023 17.1706 9.54818 17.1953 9.625C17.2201 9.70182 17.2324 9.80404 17.2324 9.93164C17.2324 10.0632 17.2201 10.1683 17.1953 10.2471C17.1706 10.3258 17.1312 10.3851 17.0771 10.4248C17.0231 10.4639 16.9521 10.4896 16.8643 10.502C16.777 10.515 16.6702 10.5215 16.5439 10.5215ZM17.0449 9.93164C17.0449 9.83854 17.04 9.764 17.0303 9.70801C17.0212 9.65202 17.0007 9.61003 16.9688 9.58203C16.9368 9.55339 16.887 9.53418 16.8193 9.52441C16.7523 9.51465 16.6605 9.50977 16.5439 9.50977C16.4281 9.50977 16.3363 9.51465 16.2686 9.52441C16.2008 9.53418 16.151 9.55339 16.1191 9.58203C16.0872 9.61003 16.0664 9.65202 16.0566 9.70801C16.0475 9.764 16.043 9.83854 16.043 9.93164C16.043 10.028 16.0475 10.1051 16.0566 10.1631C16.0664 10.221 16.0872 10.2646 16.1191 10.2939C16.151 10.3226 16.2008 10.3418 16.2686 10.3516C16.3363 10.3607 16.4281 10.3652 16.5439 10.3652C16.6605 10.3652 16.7523 10.3607 16.8193 10.3516C16.887 10.3418 16.9368 10.3226 16.9688 10.2939C17.0007 10.2646 17.0212 10.221 17.0303 10.1631C17.04 10.1051 17.0449 10.028 17.0449 9.93164Z"
        fill="green"
    />
    <path
        d="M2 19.5H22V19.5C22 20.6046 21.1046 21.5 20 21.5H4C2.89543 21.5 2 20.6046 2 19.5V19.5Z"
        fill="green"
    />
</svg>